<?xml version="1.0" encoding="UTF-8" standalone="no"?>
<!DOCTYPE svg PUBLIC "-//W3C//DTD SVG 1.1//EN" "http://www.w3.org/Graphics/SVG/1.1/DTD/svg11.dtd">
<!-- Created with Vectornator (http://vectornator.io/) -->
<svg height="100%" stroke-miterlimit="10" style="fill-rule:nonzero;clip-rule:evenodd;stroke-linecap:round;stroke-linejoin:round;" version="1.1" viewBox="0 0 650.942 650.942" width="100%" xml:space="preserve" xmlns="http://www.w3.org/2000/svg" xmlns:xlink="http://www.w3.org/1999/xlink">
<defs/>
<clipPath id="ArtboardFrame">
<rect height="650.942" width="650.942" x="0" y="0"/>
</clipPath>
<g clip-path="url(#ArtboardFrame)" id="layer3">
<path d="M0 0L650.942 0L650.942 0L650.942 650.942L650.942 650.942L0 650.942L0 650.942L0 0L0 0Z" fill="#000000" fill-rule="nonzero" opacity="1" stroke="none"/>
<path d="M332.4 523.077C271.92 523.077 222.696 485.082 221.246 406.734C219.512 313.021 291.703 232.299 395.047 232.299C484.962 232.299 564.143 308.678 564.143 409.387C564.143 550.941 465.255 610.28 356.188 610.28C224.927 610.28 71.2916 524.047 80.2443 322.612C89.197 121.176 177.69 51.1261 286.129-64.8403C347.555-130.53 435.484-216.632 435.122-280.626C434.599-373.171 387.912-394.804 319.319-310.566C271.028-251.261 271.604-157.344 316.172 71.0717L433.56 672.697C450.551 759.779 418.427 876.585 282.675 876.585C198.201 876.585 158.908 828.579 158.908 786.173C158.908 721.871 221.178 717.475 221.178 717.475C259.207 717.475 277.501 740.003 277.501 776.093C277.501 805.731 247.777 829.635 217.495 832.213C217.495 832.213 219.311 859.174 270.965 859.174C343.163 859.174 431.364 809.701 405.36 676.751L289.923 86.5745C247.412-130.764 237.614-297.958 299.157-439.629C366.349-594.307 434.293-445.053 455.561-277.556C473.837-133.622 459.313-45.1582 358.544 41.5342C235.349 147.52 123.187 241.912 120.968 376.515C118.842 505.485 217.034 587.533 368.485 587.533C446.176 587.533 494.023 524.372 494.023 450.047C494.023 386.909 452.82 317.723 360.482 317.723C243.438 317.723 213.86 489.712 332.4 523.077Z" fill="#4cf5ff" fill-rule="nonzero" opacity="1" stroke="none"/>
<path d="M332.4 523.077C272.053 519.069 225.455 477.895 229.201 399.624C233.681 306.001 311.063 230.242 414.181 237.091C503.897 243.05 577.843 324.508 571.168 424.995C561.787 566.239 459.184 618.894 350.357 611.665C219.384 602.966 71.8015 506.741 94.0843 306.342C116.367 105.942 209.308 41.9107 325.195-66.6139C390.839-128.088 484.281-208.174 488.161-272.051C493.772-364.427 448.621-389.107 374.596-309.599C322.482-253.625 316.832-159.877 346.164 70.9901L423.421 679.073C434.604 767.09 394.81 881.509 259.356 872.513C175.068 866.914 139.042 816.41 141.853 774.097C146.114 709.936 208.539 709.676 208.539 709.676C246.485 712.197 263.245 735.889 260.853 771.899C258.889 801.471 227.646 823.353 197.261 823.918C197.261 823.918 197.286 850.94 248.826 854.364C320.865 859.149 412.151 815.63 395.015 681.249L318.945 84.7193C290.931-134.959 292.236-302.435 363.032-439.716C440.328-589.6 498.231-436.171 508.352-267.633C517.048-122.805 496.693-35.4976 390.4 44.3259C260.452 141.914 142.281 228.665 131.146 362.826C120.477 491.37 213.016 579.746 364.134 589.783C441.655 594.932 493.582 535.081 498.508 460.92C502.692 397.92 466.165 326.155 374.03 320.036C257.243 312.279 216.332 481.93 332.4 523.077Z" fill="#f500a5" fill-rule="nonzero" opacity="1" stroke="none"/>
<path d="M391.781-483C382.557-473.146 372.955-458.962 363.031-439.719C341.834-398.615 326.972-354.733 317.156-307.625C317.9-308.587 318.544-309.618 319.312-310.562C365.175-366.886 401.162-375.669 420.188-347.781C427.911-352.184 435.078-355.031 441.625-356.312C429.169-410.858 411.905-457.346 391.781-483ZM461.719-208.25C429.839-161.835 375.491-113.444 331.344-72.3438C330.406-85.7745 329.654-98.6081 329.188-110.688C320.383-101.224 312.002-92.3345 303.5-83.3438C304.039-71.8931 304.717-60.281 305.531-48.5C199.045 49.4206 115.082 117.592 94.0938 306.344C73.4859 491.678 198.163 587.854 320.625 608.156C332.573 609.552 344.465 610.281 356.188 610.281C368.272 610.281 380.192 609.426 391.906 607.938L405.375 676.75C431.38 809.699 343.166 859.187 270.969 859.188C254.476 859.188 243.113 856.398 235.219 852.656C197.415 845.829 197.25 823.906 197.25 823.906C227.636 823.342 258.88 801.479 260.844 771.906C262.393 748.577 255.862 730.457 240.781 719.875C234.955 718.299 228.439 717.469 221.188 717.469C221.187 717.469 158.906 721.885 158.906 786.188C158.906 816.754 179.434 850.127 222.469 866.438C233.582 869.448 245.765 871.598 259.344 872.5C394.797 881.497 434.589 767.079 423.406 679.062L414.438 608.406C416.561 608.035 418.647 607.584 420.75 607.156L419.906 602.781C500.932 582.991 564.156 522.491 564.156 409.375C564.156 340.676 527.247 283.377 475.281 253.844C456.416 244.446 435.785 238.528 414.188 237.094C397.939 236.015 382.411 237.199 367.625 239.969L366.938 234.562C360.735 235.491 354.685 236.733 348.781 238.25L317.344 77.1562C330.869 65.3756 344.58 53.5341 358.531 41.5312C442.023-30.2979 466.241-103.445 461.719-208.25ZM320.594 97.625L339.688 247.531C275.738 271.056 232.5 330.407 229.188 399.625C225.442 477.897 272.06 519.054 332.406 523.062C222.75 492.198 239.889 342.827 335.719 320.594L336.406 324.156C340.484 322.929 344.726 321.995 349.094 321.281L373.938 516L387.625 586.031C386.062 586.256 384.561 586.612 382.969 586.781L383.312 589.562C377.093 590.036 370.73 590.22 364.125 589.781C350.105 588.85 336.789 587.031 323.812 584.781C198.12 570.021 119.061 492.254 120.969 376.5C122.778 266.738 198.046 183.719 292.438 99.3438L295.906 117C303.87 110.531 312.334 104.077 320.594 97.625ZM364.312 317.906C389.95 318.463 411.539 324.416 429.281 334.125C480.806 359.152 501.713 412.537 498.5 460.906C494.66 518.725 462.178 567.693 411.344 584.094L402.156 511.781L364.312 317.906Z" fill="#ffffff" fill-rule="nonzero" opacity="1" stroke="none"/>
</g>
</svg>
